<?xml version="1.0" encoding="UTF-8"?>
<svg xmlns="http://www.w3.org/2000/svg" xmlns:xlink="http://www.w3.org/1999/xlink" width="24pt" height="24pt" viewBox="0 0 24 24" version="1.1">
<g id="surface1">
<path style=" stroke:none;fill-rule:nonzero;fill:rgb(0%,0%,0%);fill-opacity:1;" d="M 19.734375 11.417969 L 18.484375 10.167969 C 17.6875 9.371094 16.6875 8.90625 15.652344 8.765625 C 15.800781 6.878906 16.132812 5.5 16.648438 3.097656 C 16.984375 1.523438 15.804688 0 14.15625 0 C 12.433594 0 10.894531 0.941406 9.707031 2.71875 C 8.679688 4.257812 7.941406 6.402344 7.554688 8.941406 C 6.808594 9.167969 6.105469 9.578125 5.515625 10.167969 L 4.265625 11.417969 C 2.339844 13.339844 2.339844 16.472656 4.265625 18.398438 C 4.542969 18.675781 4.988281 18.675781 5.265625 18.398438 L 7.644531 16.015625 C 8.148438 18.1875 9.066406 19.839844 9.855469 21.085938 C 10.851562 22.652344 12.316406 24.023438 14.183594 24 C 15.792969 23.988281 16.984375 22.484375 16.648438 20.902344 C 16.265625 19.117188 15.90625 16.78125 15.757812 15.421875 L 18.734375 18.398438 C 19.011719 18.675781 19.457031 18.675781 19.734375 18.398438 C 21.660156 16.472656 21.660156 13.339844 19.734375 11.417969 Z M 10.882812 3.503906 C 11.675781 2.3125 12.738281 1.410156 14.175781 1.410156 C 14.886719 1.417969 15.417969 2.09375 15.265625 2.800781 C 14.746094 5.238281 14.390625 6.722656 14.234375 8.78125 C 13.4375 8.902344 12.667969 9.21875 12 9.730469 C 11.121094 9.0625 10.070312 8.726562 9.019531 8.722656 C 9.386719 6.578125 10.023438 4.785156 10.882812 3.503906 Z M 4.816406 16.851562 C 3.910156 15.484375 4.0625 13.617188 5.265625 12.414062 L 6.515625 11.164062 C 7.71875 9.960938 9.582031 9.8125 10.949219 10.714844 Z M 15.265625 21.199219 C 15.417969 21.898438 14.898438 22.589844 14.15625 22.589844 C 12.773438 22.589844 11.703125 21.359375 11.046875 20.328125 C 10.167969 18.941406 9.226562 17.207031 8.847656 14.8125 L 12 11.664062 L 14.210938 13.875 C 14.34375 16.121094 14.835938 19.171875 15.265625 21.199219 Z M 19.183594 16.851562 L 13.050781 10.714844 C 14.417969 9.8125 16.28125 9.960938 17.484375 11.164062 L 18.734375 12.414062 C 19.9375 13.617188 20.089844 15.484375 19.183594 16.851562 Z M 19.183594 16.851562 "/>
<path style=" stroke:none;fill-rule:nonzero;fill:rgb(0%,0%,0%);fill-opacity:1;" d="M 11.578125 14.421875 C 11.1875 14.421875 10.871094 14.738281 10.871094 15.128906 L 10.871094 15.347656 C 10.871094 15.738281 11.1875 16.054688 11.578125 16.054688 C 11.964844 16.054688 12.28125 15.738281 12.28125 15.347656 L 12.28125 15.128906 C 12.28125 14.738281 11.964844 14.421875 11.578125 14.421875 Z M 11.578125 14.421875 "/>
<path style=" stroke:none;fill-rule:nonzero;fill:rgb(0%,0%,0%);fill-opacity:1;" d="M 11.855469 18.066406 L 11.855469 18.289062 C 11.855469 18.675781 12.167969 18.992188 12.558594 18.992188 C 12.949219 18.992188 13.265625 18.675781 13.265625 18.289062 L 13.265625 18.066406 C 13.265625 17.679688 12.949219 17.363281 12.558594 17.363281 C 12.167969 17.363281 11.855469 17.679688 11.855469 18.066406 Z M 11.855469 18.066406 "/>
</g>
</svg>
